<?xml version="1.0" standalone="no"?>
<!DOCTYPE svg PUBLIC "-//W3C//DTD SVG 20010904//EN"
 "http://www.w3.org/TR/2001/REC-SVG-20010904/DTD/svg10.dtd">
<svg version="1.0" xmlns="http://www.w3.org/2000/svg"
 width="1024.000000pt" height="1024.000000pt" viewBox="0 0 1024.000000 1024.000000"
 preserveAspectRatio="xMidYMid meet">

<g transform="translate(0.000000,1024.000000) scale(0.100000,-0.100000)"
fill="#000000" stroke="none">
<path d="M3130 7620 c-93 -11 -144 -26 -235 -70 -203 -98 -353 -288 -407 -515
-21 -90 -21 -95 -23 -1805 -3 -1828 1 -2085 29 -2189 69 -254 283 -468 542
-543 l79 -23 2015 0 2015 0 88 28 c222 69 372 189 470 375 26 50 57 125 68
168 21 79 21 91 21 1989 0 2149 6 1988 -77 2160 -109 230 -322 390 -563 425
-80 11 -3924 11 -4022 0z m4055 -125 c184 -48 324 -161 415 -337 72 -137 70
-98 68 -1203 0 -544 0 -1024 0 -1065 1 -48 -3 -77 -11 -82 -8 -5 -8 -8 -1 -8
7 0 12 -25 12 -67 0 -59 -1 -64 -11 -40 -6 15 -17 27 -25 27 -7 0 -10 5 -7 10
4 6 8 24 10 40 4 28 3 28 -16 12 -11 -9 -15 -18 -10 -20 6 -2 7 -10 4 -18 -4
-11 -9 -12 -19 -4 -7 7 -10 18 -8 25 4 9 -1 13 -13 12 -23 -1 -27 -27 -4 -27
14 0 14 -2 1 -11 -13 -9 -12 -10 3 -5 10 3 17 0 17 -8 0 -8 12 -17 28 -21 18
-5 22 -9 12 -13 -8 -3 -19 -10 -23 -16 -6 -7 -7 -4 -3 7 3 11 0 17 -9 17 -8 0
-15 6 -16 13 0 9 -2 9 -6 -1 -4 -10 -9 -9 -19 5 -13 16 -14 15 -8 -11 6 -25 4
-28 -10 -23 -10 4 -29 7 -42 7 -32 0 -31 18 2 26 18 5 22 9 13 14 -7 5 -18 2
-26 -6 -8 -8 -19 -14 -25 -14 -7 0 -6 -5 1 -14 8 -9 8 -16 2 -20 -5 -4 -13 0
-18 8 -7 12 -10 12 -21 0 -7 -8 -11 -14 -10 -15 2 0 18 -2 35 -3 42 -3 50 -12
34 -38 -7 -11 -8 -17 -3 -14 6 3 12 0 15 -6 2 -7 8 -9 13 -5 5 4 3 11 -3 15
-7 5 -7 15 -2 30 6 17 15 22 31 20 13 -2 22 -8 21 -14 -1 -6 5 -11 13 -11 8 0
14 4 14 9 0 19 18 6 24 -17 4 -14 11 -25 16 -25 14 0 12 17 -2 23 -9 3 -6 12
11 28 l23 24 -12 -24 c-9 -18 -9 -25 0 -31 9 -6 9 -9 0 -15 -9 -6 -9 -10 1
-17 11 -7 9 -8 -6 -6 -13 2 -36 -13 -64 -40 -25 -24 -48 -39 -55 -35 -7 5 -5
9 7 11 9 2 17 8 17 13 0 6 -4 8 -9 5 -11 -7 -9 13 2 32 10 15 27 16 27 1 0 -5
-4 -7 -10 -4 -5 3 -10 -1 -10 -10 0 -23 34 -14 39 10 2 11 8 24 15 28 6 5 -4
5 -21 2 -21 -4 -33 -3 -33 4 0 6 -4 11 -10 11 -5 0 -10 -11 -10 -25 0 -25 -19
-37 -21 -12 0 6 -4 2 -9 -10 -10 -24 -34 -31 -45 -13 -4 6 -10 8 -15 5 -16
-10 -20 12 -5 25 12 10 16 9 21 -4 8 -20 21 -21 21 -1 0 8 -5 15 -10 15 -5 0
-7 6 -4 14 8 19 -17 53 -27 37 -6 -9 -11 -9 -21 -1 -10 8 -15 6 -20 -10 -4
-12 -4 -24 -1 -27 3 -4 6 1 6 9 0 10 9 16 24 16 22 0 23 -3 13 -19 -7 -11 -15
-19 -19 -19 -5 0 -8 -9 -8 -19 0 -10 -7 -22 -16 -25 -9 -4 -14 -9 -11 -13 4
-3 13 -1 20 6 11 9 17 8 27 -4 11 -13 15 -13 21 -3 6 9 9 9 9 1 0 -16 -21 -28
-29 -17 -14 20 -33 12 -46 -18 l-14 -33 -1 29 c0 27 -1 28 -18 13 -10 -9 -33
-20 -50 -23 -29 -6 -37 -15 -33 -38 1 -5 -5 -6 -14 -3 -8 4 -15 1 -16 -6 0 -9
-2 -9 -6 1 -2 6 -9 10 -14 6 -5 -3 -9 0 -9 5 0 6 5 11 12 11 9 0 9 3 0 12 -14
14 -16 42 -3 34 5 -4 16 -3 25 0 13 5 14 9 5 20 -9 11 -8 14 2 14 9 0 10 3 4
8 -12 9 -16 44 -4 36 5 -3 9 0 9 5 0 6 -9 11 -19 11 -17 0 -19 -5 -15 -40 4
-37 -9 -56 -19 -27 -2 6 -7 -181 -10 -418 -7 -454 -11 -506 -59 -625 -42 -108
-93 -185 -187 -283 -93 -98 -189 -155 -350 -209 l-66 -23 -1340 -3 c-871 -2
-1367 1 -1417 7 -264 35 -517 236 -625 496 -55 132 -56 135 -63 670 -3 275 -8
471 -10 435 -2 -36 -3 -71 -3 -77 1 -7 -3 -13 -8 -13 -5 0 -4 -12 2 -27 12
-33 5 -53 -19 -53 -29 0 -33 10 -11 33 23 25 24 37 3 37 -8 0 -13 -4 -9 -9 3
-5 1 -12 -4 -16 -6 -3 -8 4 -6 17 3 12 -1 26 -8 31 -8 6 -6 7 6 3 11 -3 17 0
17 9 0 8 -4 15 -9 15 -5 0 -17 3 -27 7 -13 5 -15 3 -9 -7 5 -8 4 -11 -3 -6
-11 6 -37 -14 -45 -36 -4 -10 -7 -11 -18 -1 -11 11 -10 13 4 13 24 0 21 17 -5
23 -29 8 -40 -1 -28 -23 5 -10 10 -31 11 -47 0 -15 3 -22 6 -15 2 6 10 9 16 5
7 -4 5 2 -3 13 -8 10 -11 16 -6 12 5 -4 17 -3 26 2 14 7 17 6 16 -8 -1 -19
-54 -51 -73 -44 -6 2 -14 10 -17 19 -4 10 -2 13 8 10 10 -4 14 0 13 13 -1 22
-16 22 -35 0 -12 -13 -13 -12 -6 5 4 11 9 35 12 53 3 27 8 32 23 27 26 -9 24
3 -6 31 -14 13 -25 28 -25 34 0 5 -4 10 -9 10 -5 0 -18 3 -28 6 -11 3 -7 -3
10 -17 22 -17 26 -24 15 -31 -10 -8 -9 -9 4 -4 10 3 20 1 23 -5 4 -5 -8 -12
-25 -16 -26 -5 -31 -10 -27 -29 3 -16 0 -21 -10 -17 -9 4 -13 15 -10 29 2 12
0 28 -4 36 -4 7 -7 -12 -6 -42 2 -48 0 -55 -16 -52 -10 2 -26 -3 -35 -10 -9
-7 -13 -8 -9 -2 7 12 -23 15 -38 4 -10 -8 -55 5 -55 15 0 4 5 3 10 0 12 -7 13
5 2 21 -5 9 -10 9 -17 0 -17 -19 -17 -46 0 -46 8 0 15 -4 15 -10 0 -5 -7 -10
-15 -10 -12 0 -14 -91 -12 -691 2 -621 0 -687 -13 -647 -13 37 -15 293 -15
1938 0 2138 -8 1938 81 2119 63 128 148 215 266 271 48 23 108 48 135 55 39
11 417 13 2053 14 1775 1 2013 -1 2065 -14z m401 -2817 c4 -7 3 -8 -4 -4 -7 4
-12 2 -12 -4 0 -6 -5 -8 -10 -5 -11 7 -4 25 10 25 5 0 12 -5 16 -12z m-86 -8
c0 -5 -2 -10 -4 -10 -3 0 -8 5 -11 10 -3 6 -1 10 4 10 6 0 11 -4 11 -10z m170
-45 c0 -5 -5 -3 -10 5 -5 8 -10 20 -10 25 0 6 5 3 10 -5 5 -8 10 -19 10 -25z
m-20 -55 c0 -5 -4 -10 -10 -10 -5 0 -10 5 -10 10 0 6 5 10 10 10 6 0 10 -4 10
-10z m-155 -30 c3 -5 1 -10 -4 -10 -6 0 -11 5 -11 10 0 6 2 10 4 10 3 0 8 -4
11 -10z m119 -6 c3 -8 2 -12 -4 -9 -6 3 -10 1 -10 -6 0 -10 -3 -10 -11 -2 -11
11 -5 33 11 33 4 0 11 -7 14 -16z m50 7 c3 -5 -1 -14 -9 -21 -10 -9 -15 -9
-15 -1 0 6 6 11 13 11 8 0 7 4 -3 10 -9 6 -10 10 -3 10 6 0 14 -4 17 -9z
m-197 -15 c-4 -10 2 -16 16 -19 18 -4 17 -5 -5 -6 -16 0 -28 1 -28 3 0 10 13
36 17 36 3 0 3 -6 0 -14z m103 -13 c0 -9 -3 -13 -7 -10 -3 4 -13 1 -22 -5 -10
-8 -9 -4 3 10 23 26 26 27 26 5z m-164 -23 c1 -16 -3 -27 -7 -24 -11 6 -12 54
-1 54 4 0 7 -13 8 -30z m-4574 -15 c-3 -25 0 -35 9 -35 11 0 11 -2 -1 -10 -23
-15 -25 -13 -25 27 0 30 7 49 20 53 1 0 -1 -16 -3 -35z m4608 31 c0 -3 -4 -8
-10 -11 -5 -3 -10 -1 -10 4 0 6 5 11 10 11 6 0 10 -2 10 -4z m-4440 -10 c0 -2
-7 -7 -16 -10 -8 -3 -12 -2 -9 4 6 10 25 14 25 6z m-195 -25 c3 -5 1 -12 -5
-16 -5 -3 -10 1 -10 9 0 18 6 21 15 7z m4505 -11 c0 -11 -4 -20 -10 -20 -5 0
-10 5 -10 10 0 6 -7 10 -16 10 -8 0 -12 5 -9 10 12 19 45 11 45 -10z m284 -21
c-9 -10 -27 -19 -38 -19 -17 1 -16 3 9 15 17 7 26 14 21 14 -5 1 -2 8 5 17 9
11 15 12 17 5 2 -7 -4 -21 -14 -32z m-4907 22 c12 10 16 10 24 -2 6 -10 3 -17
-12 -23 -21 -10 -40 5 -38 29 0 6 3 4 6 -3 4 -10 8 -10 20 -1z m4703 -12 c0
-5 -4 -9 -10 -9 -5 0 -10 4 -10 9 0 4 -12 7 -27 5 -28 -4 -28 -4 -3 5 27 8 50
4 50 -10z m37 -4 c-4 -8 -12 -15 -19 -14 -10 0 -10 2 0 6 6 2 12 12 12 21 0 8
3 13 6 9 4 -3 4 -13 1 -22z m43 5 c0 -5 -4 -10 -10 -10 -5 0 -10 5 -10 10 0 6
5 10 10 10 6 0 10 -4 10 -10z m57 -17 c0 -7 -5 -12 -11 -10 -15 5 -18 24 -3
24 8 0 14 -6 14 -14z m143 13 c0 -3 -4 -8 -10 -11 -5 -3 -10 -1 -10 4 0 6 5
11 10 11 6 0 10 -2 10 -4z m-5032 -47 c0 -17 -1 -29 -4 -27 -7 8 -12 68 -4 63
4 -2 7 -18 8 -36z m152 31 c0 -5 -4 -10 -10 -10 -5 0 -10 5 -10 10 0 6 5 10
10 10 6 0 10 -4 10 -10z m185 0 c-4 -6 -2 -17 5 -25 9 -10 6 -15 -10 -20 -12
-4 -24 -4 -27 -1 -4 3 1 6 10 6 10 0 17 4 17 9 0 12 -30 22 -42 14 -7 -4 -8
-1 -4 6 5 7 14 10 22 7 7 -3 16 -1 19 4 4 6 8 10 11 10 3 0 2 -5 -1 -10z
m4272 -4 c0 -8 -6 -12 -15 -9 -11 5 -11 7 0 14 7 5 13 9 14 9 0 0 1 -6 1 -14z
m247 -2 c3 -8 2 -12 -4 -9 -6 3 -10 10 -10 16 0 14 7 11 14 -7z m-4754 -3 c0
-5 -7 -12 -16 -15 -14 -5 -15 -4 -4 9 14 17 20 19 20 6z m4716 -3 c4 -6 3 -8
-4 -4 -6 3 -15 -2 -21 -11 -9 -16 -10 -16 -11 -1 0 9 6 19 13 21 6 3 13 6 14
6 1 1 5 -4 9 -11z m-4790 -35 c-11 -11 -17 4 -9 23 7 18 8 18 11 1 2 -10 1
-21 -2 -24z m358 16 c5 -4 0 -12 -11 -17 -18 -10 -20 -8 -15 14 2 14 7 21 11
17 3 -4 10 -11 15 -14z m4262 -1 c4 -14 2 -24 -5 -26 -9 -3 -7 -10 5 -23 16
-18 16 -19 -1 -19 -10 0 -15 3 -12 7 4 3 2 12 -4 20 -6 7 -8 13 -3 13 5 0 2 4
-5 9 -9 6 -22 6 -34 -1 -10 -5 -21 -7 -25 -4 -3 3 1 6 9 6 12 0 12 2 -1 10 -8
5 -11 12 -7 17 5 4 11 3 15 -3 10 -16 42 -13 42 3 0 21 18 15 26 -9z m53 5
c12 3 21 1 21 -4 0 -5 -9 -9 -20 -9 -11 0 -20 -6 -21 -12 0 -7 -4 -4 -9 7 -11
27 -12 44 -1 26 5 -8 18 -12 30 -8z m-4548 -2 c-8 -5 -20 -7 -28 -4 -21 8 -15
13 15 13 20 0 23 -3 13 -9z m74 -9 c3 -8 3 -17 0 -20 -3 -3 -5 0 -5 6 0 7 -7
12 -16 12 -8 0 -12 -4 -9 -10 4 -6 -1 -7 -11 -3 -13 5 -15 2 -9 -18 5 -18 4
-21 -4 -9 -14 20 -14 26 3 43 18 18 44 18 51 -1z m30 8 c3 -5 1 -10 -4 -10 -6
0 -11 5 -11 10 0 6 2 10 4 10 3 0 8 -4 11 -10z m4655 1 c0 -5 3 -17 7 -27 6
-16 5 -17 -8 -4 -17 15 -21 40 -7 40 4 0 8 -4 8 -9z m42 -13 c-9 -9 -15 -9
-24 1 -11 10 -10 11 5 6 10 -5 17 -2 17 6 0 7 3 9 7 6 4 -4 1 -13 -5 -19z m67
-4 c4 3 7 -7 8 -22 0 -15 -1 -19 -4 -9 -2 9 -9 17 -14 17 -5 0 -8 10 -8 23 1
17 2 18 6 4 2 -9 8 -15 12 -13z m-4589 -32 c0 -28 -3 -33 -10 -22 -13 20 -13
73 0 65 6 -3 10 -23 10 -43z m4344 35 c10 -10 11 -17 2 -28 -11 -16 -36 -15
-36 2 0 4 7 6 15 3 17 -7 21 11 4 21 -6 4 -22 -4 -36 -16 -15 -13 -23 -19 -20
-12 4 6 4 13 0 16 -5 2 -2 2 5 1 7 -2 15 3 18 11 7 18 31 19 48 2z m-4613 -87
c6 0 7 -5 3 -11 -11 -18 -24 12 -22 51 l1 35 4 -37 c2 -21 9 -38 14 -38z m99
60 c0 -5 -4 -10 -10 -10 -5 0 -10 5 -10 10 0 6 5 10 10 10 6 0 10 -4 10 -10z
m-36 -35 c-3 -8 -12 -11 -20 -8 -10 4 -11 9 -4 18 5 6 6 16 2 21 -4 4 1 3 10
-5 9 -7 14 -19 12 -26z m4476 3 c0 -4 -6 -5 -14 -2 -8 3 -12 12 -9 21 5 12 7
12 14 1 5 -7 9 -16 9 -20z m310 22 c0 -5 -5 -10 -11 -10 -5 0 -7 5 -4 10 3 6
8 10 11 10 2 0 4 -4 4 -10z m-195 -10 c3 -6 -1 -7 -9 -4 -18 7 -21 14 -7 14 6
0 13 -4 16 -10z m26 -13 c-10 -9 -11 -8 -5 6 3 10 9 15 12 12 3 -3 0 -11 -7
-18z m124 13 c3 -5 1 -10 -4 -10 -6 0 -11 5 -11 10 0 6 2 10 4 10 3 0 8 -4 11
-10z m-4680 -10 c3 -6 -1 -7 -9 -4 -18 7 -21 14 -7 14 6 0 13 -4 16 -10z
m4335 -12 c0 -6 -6 -5 -15 2 -8 7 -15 14 -15 16 0 2 7 1 15 -2 8 -4 15 -11 15
-16z m-4365 -8 c-3 -5 -11 -10 -16 -10 -6 0 -7 5 -4 10 3 6 11 10 16 10 6 0 7
-4 4 -10z m139 -4 c-3 -8 -12 -17 -20 -20 -18 -7 -18 -1 2 18 19 20 25 20 18
2z m4271 4 c3 -6 -1 -7 -9 -4 -18 7 -21 14 -7 14 6 0 13 -4 16 -10z m280 1 c3
-5 2 -12 -3 -15 -5 -3 -9 1 -9 9 0 17 3 19 12 6z m-4602 -16 c-3 -9 -8 -14
-10 -11 -3 3 -2 9 2 15 9 16 15 13 8 -4z m4312 -15 c-3 -5 -12 -10 -18 -10 -7
0 -6 4 3 10 19 12 23 12 15 0z m-4228 -22 c-3 -8 -6 -5 -6 6 -1 11 2 17 5 13
3 -3 4 -12 1 -19z m4164 -5 c-12 -20 -14 -14 -5 12 4 9 9 14 11 11 3 -2 0 -13
-6 -23z m-4221 7 c0 -5 -2 -10 -4 -10 -3 0 -8 5 -11 10 -3 6 -1 10 4 10 6 0
11 -4 11 -10z m4373 -25 c-3 -9 -8 -14 -10 -11 -3 3 -2 9 2 15 9 16 15 13 8
-4z m-109 -3 c-5 -4 -12 -11 -15 -15 -3 -5 -9 -2 -12 5 -3 9 3 14 15 15 11 1
16 -1 12 -5z m-44 -12 c8 -5 11 -10 5 -10 -5 0 -17 5 -25 10 -8 5 -10 10 -5
10 6 0 17 -5 25 -10z m-4489 -78 c-7 -2 -18 1 -23 6 -8 8 -4 9 13 5 13 -4 18
-8 10 -11z m235 -840 c6 -4 19 -23 29 -42 9 -19 28 -49 41 -67 28 -37 30 -69
8 -101 -14 -21 -23 -23 -97 -21 -102 2 -127 11 -127 43 0 22 38 98 84 169 18
27 40 34 62 19z m4344 -193 c36 -63 73 -124 81 -137 10 -17 11 -26 3 -40 -10
-15 -31 -17 -199 -17 -161 0 -189 2 -198 16 -8 12 6 40 59 124 38 60 85 126
105 147 53 55 68 45 149 -93z m-4126 -120 c73 -130 63 -149 -79 -149 -86 0
-95 2 -106 21 -13 25 -8 37 52 141 56 96 73 94 133 -13z"/>
<path d="M3246 7110 c12 -39 7 -121 -10 -160 -32 -77 -92 -114 -182 -114 -54
0 -69 5 -116 37 -55 36 -77 71 -92 147 -3 14 -3 3 -1 -25 5 -70 11 -91 36
-128 54 -76 107 -101 198 -93 36 3 71 12 81 21 9 8 20 12 23 8 4 -3 7 1 7 10
0 10 4 17 8 17 5 0 15 12 22 28 8 15 21 35 30 46 20 24 22 199 1 218 -11 11
-12 9 -5 -12z"/>
<path d="M3033 7020 c-34 -46 -41 -51 -68 -46 -28 5 -29 5 -11 -9 28 -21 31
-20 76 26 22 23 41 40 43 38 1 -2 7 -13 13 -23 6 -11 23 -29 37 -40 l27 -20
23 24 c17 18 17 20 2 8 -19 -15 -22 -15 -40 0 -12 9 -27 32 -34 50 -8 18 -17
35 -22 38 -4 2 -25 -18 -46 -46z"/>
<path d="M7166 6953 c128 -3 131 -4 144 -28 7 -14 15 -23 17 -21 3 2 -3 16
-12 30 -17 26 -17 26 -149 24 l-131 -2 131 -3z"/>
<path d="M7370 6890 c-13 -8 -13 -10 2 -10 9 0 20 5 23 10 8 13 -5 13 -25 0z"/>
<path d="M4715 6670 c-9 -10 -15 -27 -12 -37 18 -60 68 -187 78 -199 26 -32
99 0 99 44 0 17 -59 177 -73 200 -13 19 -72 15 -92 -8z"/>
<path d="M5472 6677 c-19 -22 -64 -150 -69 -194 -4 -35 -1 -43 17 -53 11 -6
34 -8 50 -5 30 7 33 12 86 161 17 49 17 53 1 78 -19 29 -66 36 -85 13z"/>
<path d="M3888 6648 c-23 -18 -29 -50 -15 -74 7 -12 44 -52 83 -88 80 -73 106
-81 144 -41 20 21 21 27 11 52 -15 34 -165 163 -190 163 -9 0 -24 -6 -33 -12z"/>
<path d="M6262 6598 c-80 -74 -103 -106 -96 -135 7 -27 58 -49 84 -37 11 5 51
40 90 78 75 74 88 107 52 139 -32 29 -59 20 -130 -45z"/>
<path d="M5090 6465 c-14 -17 -11 -34 19 -115 11 -30 20 -71 21 -91 0 -56 -29
-134 -67 -179 -39 -45 -135 -96 -208 -109 l-49 -9 -66 57 c-108 95 -373 315
-407 339 -40 29 -84 28 -110 0 -20 -22 -21 -38 -28 -348 l-7 -325 -37 -40
c-162 -177 -238 -354 -248 -580 -11 -245 58 -434 228 -619 l62 -67 -53 -122
c-65 -151 -183 -410 -262 -579 -64 -136 -73 -188 -44 -233 26 -40 72 -47 305
-43 l213 3 33 38 c18 20 46 70 63 110 52 124 264 592 272 601 5 4 34 -4 66
-19 101 -48 214 -42 222 12 2 16 -9 29 -42 53 -49 33 -86 92 -86 135 0 21 5
25 28 25 42 0 130 28 194 62 55 29 59 30 80 14 101 -74 184 -115 278 -139 l51
-13 80 -185 c45 -101 122 -278 172 -394 107 -248 125 -279 168 -294 20 -7 111
-11 236 -11 226 0 250 5 279 62 9 17 14 42 11 58 -3 14 -89 215 -191 446
l-186 419 78 80 c298 308 292 830 -14 1154 l-64 68 0 311 c0 173 -4 322 -10
336 -11 29 -40 47 -80 48 -30 1 -101 -57 -420 -341 -69 -61 -128 -111 -131
-111 -3 0 0 23 7 52 17 66 17 109 0 173 -33 125 -124 238 -238 295 -68 33 -99
37 -118 15z m-716 -292 c60 -55 194 -169 248 -210 21 -15 37 -31 38 -34 0 -4
-15 -10 -34 -13 -52 -10 -199 -70 -256 -105 -28 -17 -52 -31 -54 -31 -2 0 -3
99 -3 220 1 121 3 220 6 220 2 0 27 -21 55 -47z m1584 -173 l3 -220 -58 35
c-74 44 -163 80 -235 95 l-57 11 77 67 c42 37 119 104 171 149 52 46 95 83 95
83 1 0 2 -99 4 -220z m-1064 -230 c73 -19 197 -77 211 -100 11 -17 45 -11 79
15 76 58 235 105 353 105 90 0 190 -26 283 -72 70 -34 102 -59 186 -142 171
-171 245 -334 244 -540 -1 -69 -26 -220 -30 -176 0 8 -12 -5 -26 -30 -30 -55
-94 -145 -94 -134 -1 5 -10 -2 -20 -15 -11 -13 -20 -20 -20 -16 0 4 -9 -4 -21
-19 -17 -22 -92 -64 -174 -97 -150 -61 -383 -39 -490 47 l-38 30 28 42 c15 22
40 78 56 124 65 187 22 343 -128 460 l-64 51 7 69 c6 59 4 71 -12 89 -66 73
-215 63 -299 -18 -87 -84 -96 -170 -33 -299 41 -85 41 -87 27 -127 -13 -37
-22 -44 -115 -91 -197 -99 -272 -194 -299 -379 -5 -33 -9 -37 -28 -32 -41 12
-192 87 -204 102 -10 12 -12 12 -17 -5 -4 -10 -16 -24 -29 -31 -18 -9 -18 -10
-2 -6 16 5 17 4 8 -6 -10 -10 -6 -18 19 -41 17 -15 27 -28 22 -28 -14 0 -105
97 -138 147 -16 24 -25 47 -20 54 4 7 3 10 -3 6 -27 -17 -81 153 -89 288 -7
101 13 232 46 310 31 72 100 186 141 234 95 108 259 207 392 236 91 20 200 18
291 -5z m1326 -940 c0 -5 -5 -10 -11 -10 -5 0 -7 5 -4 10 3 6 8 10 11 10 2 0
4 -4 4 -10z m-16 -58 c-4 -12 -10 -19 -16 -16 -5 3 -4 11 2 19 7 8 8 20 4 27
-5 9 -4 10 4 3 6 -6 9 -20 6 -33z m-54 -112 c0 -5 -5 -10 -11 -10 -5 0 -7 5
-4 10 3 6 8 10 11 10 2 0 4 -4 4 -10z m-120 -144 c0 -2 -6 -9 -14 -15 -11 -9
-16 -9 -22 0 -4 7 -3 9 4 5 6 -3 13 -2 17 4 6 10 15 14 15 6z m-1695 -45 c-3
-2 3 -10 13 -18 16 -13 15 -13 -3 -4 -43 22 -51 30 -28 28 12 0 20 -3 18 -6z
m1075 -16 c14 -8 21 -14 15 -14 -5 0 -21 6 -35 14 -14 8 -20 14 -15 14 6 0 21
-6 35 -14z m527 -10 c-4 -8 -12 -15 -19 -14 -10 0 -10 2 0 6 6 2 12 12 12 21
0 8 3 13 6 9 4 -3 4 -13 1 -22z m-1557 -53 c0 -4 -5 -13 -12 -20 -9 -9 2 -12
53 -13 97 -2 120 -10 141 -47 10 -18 14 -31 9 -28 -10 7 -51 -53 -51 -74 0 -9
7 -7 22 6 19 17 21 17 15 2 -5 -14 -1 -18 18 -18 14 0 25 -2 25 -4 0 -2 -22
-51 -50 -109 -27 -58 -50 -108 -50 -112 0 -3 -22 -54 -49 -113 -27 -59 -65
-147 -86 -197 -59 -142 -51 -135 -155 -135 -53 0 -90 4 -90 10 0 6 15 10 33
11 31 0 31 1 -12 14 -47 15 -66 11 -57 -10 4 -10 -12 -14 -65 -17 -38 -2 -69
-3 -69 -2 0 4 106 238 200 444 62 135 123 270 137 299 32 73 93 146 93 113z
m1522 -7 c25 3 31 -4 77 -94 60 -116 341 -741 341 -757 0 -6 -191 -3 -278 5
l-73 6 -65 145 c-147 328 -226 518 -228 547 0 11 -4 19 -7 17 -4 -2 -9 6 -12
17 -4 15 -2 19 9 15 8 -3 13 -2 10 2 -2 4 2 18 10 32 8 15 14 19 14 10 0 -12
4 -11 15 4 11 14 24 17 59 14 39 -3 46 0 46 14 0 11 8 18 20 18 11 0 20 6 20
13 0 9 2 9 8 1 4 -7 19 -11 34 -9z m-1290 -167 c-9 -9 -12 -7 -12 10 0 12 -4
22 -10 22 -5 0 -10 6 -10 12 0 7 10 2 22 -10 17 -17 20 -24 10 -34z"/>
<path d="M4130 4672 c0 -15 11 -21 27 -15 12 5 12 7 1 14 -17 11 -28 11 -28 1z"/>
<path d="M4188 4593 c7 -3 16 -2 19 1 4 3 -2 6 -13 5 -11 0 -14 -3 -6 -6z"/>
<path d="M5852 4364 c-7 -8 -8 -14 -3 -14 10 0 25 19 20 25 -2 1 -10 -3 -17
-11z"/>
<path d="M3722 6409 c-30 -11 -48 -52 -36 -80 6 -12 50 -45 99 -75 120 -73
175 -73 175 1 0 38 -11 48 -110 107 -92 55 -99 58 -128 47z"/>
<path d="M6464 6387 c-27 -18 -70 -45 -96 -60 -55 -32 -69 -64 -44 -102 25
-38 62 -32 150 25 42 28 81 50 86 50 12 0 40 41 40 58 0 20 -46 62 -68 62 -11
0 -42 -15 -68 -33z"/>
<path d="M3602 6104 c-24 -17 -29 -51 -9 -77 14 -19 237 -117 267 -117 25 0
60 34 60 58 0 34 -25 52 -140 102 -125 54 -144 58 -178 34z"/>
<path d="M6492 6075 c-57 -24 -112 -51 -123 -61 -28 -25 -22 -74 11 -93 24
-13 35 -10 154 38 168 66 188 85 150 139 -23 33 -72 27 -192 -23z"/>
<path d="M7565 4890 c-3 -5 -1 -10 4 -10 6 0 11 5 11 10 0 6 -2 10 -4 10 -3 0
-8 -4 -11 -10z"/>
<path d="M7369 4873 c-13 -16 -12 -17 4 -4 16 13 21 21 13 21 -2 0 -10 -8 -17
-17z"/>
<path d="M2870 4849 c0 -5 5 -7 10 -4 6 3 10 8 10 11 0 2 -4 4 -10 4 -5 0 -10
-5 -10 -11z"/>
<path d="M7432 4846 c7 -8 15 -12 17 -11 5 6 -10 25 -20 25 -5 0 -4 -6 3 -14z"/>
<path d="M7651 4844 c0 -11 3 -14 6 -6 3 7 2 16 -1 19 -3 4 -6 -2 -5 -13z"/>
<path d="M2720 4845 c0 -7 30 -13 34 -7 3 4 -4 9 -15 9 -10 1 -19 0 -19 -2z"/>
<path d="M7300 4835 c0 -2 10 -10 23 -16 20 -11 21 -11 8 4 -13 16 -31 23 -31
12z"/>
<path d="M7612 4820 c0 -14 2 -19 5 -12 2 6 2 18 0 25 -3 6 -5 1 -5 -13z"/>
<path d="M7484 4818 c3 -10 1 -18 -4 -18 -6 0 -10 5 -10 12 0 6 -3 8 -6 5 -4
-4 -1 -13 5 -21 7 -8 10 -20 6 -26 -10 -16 11 -12 32 8 10 9 14 14 9 10 -14
-11 -28 -10 -21 2 3 5 1 18 -5 27 -11 17 -11 17 -6 1z"/>
<path d="M7530 4820 c-9 -6 -10 -10 -3 -10 6 0 15 5 18 10 8 12 4 12 -15 0z"/>
<path d="M7570 4800 c0 -6 7 -10 15 -10 8 0 15 2 15 4 0 2 -7 6 -15 10 -8 3
-15 1 -15 -4z"/>
<path d="M2910 4786 c0 -2 7 -9 15 -16 9 -7 15 -8 15 -2 0 5 -7 12 -15 16 -8
3 -15 4 -15 2z"/>
<path d="M7340 4776 c0 -2 7 -6 15 -10 8 -3 15 -1 15 4 0 6 -7 10 -15 10 -8 0
-15 -2 -15 -4z"/>
<path d="M2780 4765 c0 -7 30 -13 34 -7 3 4 -4 9 -15 9 -10 1 -19 0 -19 -2z"/>
<path d="M7445 4760 c3 -5 8 -10 11 -10 2 0 4 5 4 10 0 6 -5 10 -11 10 -5 0
-7 -4 -4 -10z"/>
<path d="M3072 4735 c0 -16 2 -22 5 -12 2 9 2 23 0 30 -3 6 -5 -1 -5 -18z"/>
<path d="M7483 4753 c-7 -2 -13 -9 -13 -15 0 -7 4 -7 13 -1 6 6 20 9 30 8 9
-2 15 1 11 6 -6 10 -21 11 -41 2z"/>
<path d="M2623 4735 c0 -8 6 -16 14 -19 11 -4 11 -1 3 14 -13 24 -17 25 -17 5z"/>
<path d="M7400 4744 c0 -3 6 -12 14 -19 12 -12 15 -12 18 3 4 12 -1 18 -13 19
-11 1 -19 -1 -19 -3z"/>
<path d="M2771 4724 c0 -11 3 -14 6 -6 3 7 2 16 -1 19 -3 4 -6 -2 -5 -13z"/>
<path d="M7235 4720 c3 -5 8 -10 11 -10 2 0 4 5 4 10 0 6 -5 10 -11 10 -5 0
-7 -4 -4 -10z"/>
<path d="M7337 4723 c-4 -6 -4 -19 -1 -28 4 -9 -1 -22 -12 -31 -18 -15 -18
-15 1 -6 11 5 26 7 34 4 8 -2 20 3 28 14 17 23 16 31 -3 38 -11 4 -14 0 -12
-16 2 -11 -2 -23 -9 -25 -7 -3 -13 9 -15 29 -2 19 -6 28 -11 21z"/>
<path d="M7216 4706 c4 -11 0 -16 -10 -16 -13 0 -16 -12 -15 -67 1 -46 3 -58
8 -39 3 16 15 33 26 37 11 4 14 8 8 8 -20 1 -15 21 5 21 11 0 18 8 19 23 2 20
1 21 -11 5 -19 -25 -29 -22 -22 6 3 14 2 28 -4 31 -6 3 -7 -1 -4 -9z m-1 -46
c3 -5 1 -10 -4 -10 -6 0 -11 5 -11 10 0 6 2 10 4 10 3 0 8 -4 11 -10z"/>
<path d="M2880 4690 c-8 -5 -10 -10 -5 -10 6 0 17 5 25 10 8 5 11 10 5 10 -5
0 -17 -5 -25 -10z"/>
<path d="M2718 4683 c7 -3 16 -2 19 1 4 3 -2 6 -13 5 -11 0 -14 -3 -6 -6z"/>
<path d="M2782 4665 c0 -16 2 -22 5 -12 2 9 2 23 0 30 -3 6 -5 -1 -5 -18z"/>
<path d="M2805 4680 c-3 -5 3 -10 15 -10 12 0 18 5 15 10 -3 6 -10 10 -15 10
-5 0 -12 -4 -15 -10z"/>
<path d="M2943 4683 c-13 -2 -24 -10 -25 -16 -4 -36 -3 -43 5 -54 18 -24 29
-13 13 12 -16 25 -14 51 4 40 5 -3 11 -1 15 5 11 18 24 11 28 -17 5 -28 5 -28
3 1 -1 31 -8 36 -43 29z"/>
<path d="M2745 4669 c-4 -6 -4 -13 -1 -16 3 -4 6 -1 6 6 0 7 5 9 12 5 7 -4 8
-3 4 4 -9 15 -13 15 -21 1z"/>
<path d="M2851 4662 c-1 -7 -7 -10 -13 -7 -7 4 0 -5 15 -19 15 -14 33 -26 40
-26 7 1 3 9 -9 18 -11 10 -23 24 -27 32 -4 11 -6 11 -6 2z"/>
<path d="M2961 4652 c-1 -8 -6 -10 -13 -6 -10 5 -10 4 -1 -6 15 -16 28 -8 20
12 -4 11 -6 11 -6 0z"/>
<path d="M7520 4640 c-8 -15 -8 -18 3 -14 8 3 14 11 14 19 0 20 -4 19 -17 -5z"/>
<path d="M2620 4646 c0 -2 7 -6 15 -10 8 -3 15 -1 15 4 0 6 -7 10 -15 10 -8 0
-15 -2 -15 -4z"/>
<path d="M3016 4634 c-4 -9 -1 -23 5 -30 13 -16 29 -18 29 -4 0 6 -7 10 -15
10 -18 0 -20 17 -3 22 8 3 9 6 1 11 -6 4 -14 0 -17 -9z"/>
<path d="M7340 4632 c0 -10 -6 -12 -17 -7 -10 4 -29 10 -42 13 -20 4 -23 2
-18 -12 4 -10 7 -20 7 -22 0 -2 5 -4 11 -4 5 0 8 4 4 9 -6 10 27 7 45 -4 6 -3
10 -1 10 4 0 6 5 11 10 11 7 0 7 -6 0 -19 -7 -14 -6 -21 3 -24 7 -3 4 -6 -6
-6 -10 -1 -15 -5 -12 -11 3 -5 0 -10 -9 -10 -8 0 -16 5 -18 12 -3 7 -9 8 -18
3 -10 -6 -8 -11 11 -18 29 -11 73 -18 65 -10 -3 4 -1 12 5 20 7 8 8 17 2 26
-5 6 -8 24 -7 38 2 17 -2 26 -12 26 -8 0 -14 -7 -14 -15z"/>
<path d="M2731 4627 c-1 -12 -6 -16 -13 -11 -10 5 -10 4 -1 -6 16 -17 26 -8
20 17 -4 17 -5 17 -6 0z"/>
<path d="M2648 4623 c-10 -2 -18 -11 -18 -19 0 -13 2 -13 16 1 10 9 24 13 38
10 17 -5 18 -4 6 4 -8 6 -17 10 -20 10 -3 -1 -13 -3 -22 -6z"/>
<path d="M7550 4621 c0 -5 9 -7 20 -4 11 3 20 7 20 9 0 2 -9 4 -20 4 -11 0
-20 -4 -20 -9z"/>
<path d="M2968 4613 c6 -2 18 -2 25 0 6 3 1 5 -13 5 -14 0 -19 -2 -12 -5z"/>
<path d="M7296 4601 c-4 -7 -5 -15 -2 -18 9 -9 19 4 14 18 -4 11 -6 11 -12 0z"/>
<path d="M2900 4593 c0 -5 7 -16 14 -26 11 -14 15 -15 19 -4 3 8 0 20 -6 26
-13 13 -27 15 -27 4z"/>
<path d="M2971 4591 l-24 -6 24 -12 c22 -9 25 -8 26 8 1 11 1 19 0 18 -1 -1
-13 -4 -26 -8z"/>
<path d="M2655 4580 c3 -5 8 -10 11 -10 2 0 4 5 4 10 0 6 -5 10 -11 10 -5 0
-7 -4 -4 -10z"/>
<path d="M2735 4570 c-24 -6 -26 -8 -7 -9 26 -1 29 -16 6 -25 -20 -8 -11 -19
16 -21 16 -1 19 5 18 32 -1 18 -2 32 -2 32 -1 -1 -14 -5 -31 -9z"/>
<path d="M3010 4576 c0 -9 30 -14 35 -6 4 6 -3 10 -14 10 -12 0 -21 -2 -21 -4z"/>
<path d="M2680 4560 c0 -5 5 -10 11 -10 5 0 7 5 4 10 -3 6 -8 10 -11 10 -2 0
-4 -4 -4 -10z"/>
<path d="M2940 4561 c0 -5 6 -11 13 -14 8 -3 14 1 14 9 0 8 -6 14 -14 14 -7 0
-13 -4 -13 -9z"/>
<path d="M2645 4540 c9 -30 13 -35 21 -27 3 3 -2 16 -11 29 l-17 23 7 -25z"/>
<path d="M7284 4529 c-3 -5 -10 -6 -16 -3 -6 4 -8 2 -4 -4 3 -6 -2 -13 -11
-15 -12 -3 -8 -5 9 -6 15 0 29 3 33 9 3 5 12 7 20 3 8 -3 15 -1 15 5 0 13 -39
23 -46 11z"/>
<path d="M2690 4515 c0 -8 2 -15 4 -15 2 0 6 7 10 15 3 8 1 15 -4 15 -6 0 -10
-7 -10 -15z"/>
<path d="M2932 3185 c-34 -43 -29 -55 23 -55 52 0 56 11 22 54 l-23 29 -22
-28z"/>
<path d="M7187 3083 c-55 -88 -57 -83 23 -83 38 0 70 2 70 4 0 2 -15 29 -34
61 l-35 57 -24 -39z"/>
<path d="M3106 2942 c-9 -17 -17 -35 -19 -38 -1 -4 17 -7 41 -8 49 -1 53 10
18 50 l-23 28 -17 -32z"/>
</g>
</svg>
